<?xml version="1.0" encoding="UTF-8" standalone="no"?>
<svg
   width="16"
   height="16"
   fill="currentColor"
   class="bi bi-hdd"
   viewBox="0 0 16 16"
   version="1.1"
   id="svg6"
   sodipodi:docname="hdd.svg"
   inkscape:version="1.1.2 (b8e25be833, 2022-02-05)"
   inkscape:export-filename="D:\Daten\WEBSITE\Git\Actionbutton-Dashboard\src\main\resources\icons\hdd_white.png"
   inkscape:export-xdpi="400"
   inkscape:export-ydpi="400"
   xmlns:inkscape="http://www.inkscape.org/namespaces/inkscape"
   xmlns:sodipodi="http://sodipodi.sourceforge.net/DTD/sodipodi-0.dtd"
   xmlns="http://www.w3.org/2000/svg"
   xmlns:svg="http://www.w3.org/2000/svg">
  <defs
     id="defs10" />
  <sodipodi:namedview
     id="namedview8"
     pagecolor="#ffffff"
     bordercolor="#666666"
     borderopacity="1.0"
     inkscape:pageshadow="2"
     inkscape:pageopacity="0.0"
     inkscape:pagecheckerboard="0"
     showgrid="false"
     inkscape:zoom="44.9375"
     inkscape:cx="7.9888734"
     inkscape:cy="7.9888734"
     inkscape:window-width="3440"
     inkscape:window-height="1377"
     inkscape:window-x="1912"
     inkscape:window-y="-369"
     inkscape:window-maximized="1"
     inkscape:current-layer="svg6" />
  <path
     d="M4.5 11a.5.5 0 1 0 0-1 .5.5 0 0 0 0 1zM3 10.5a.5.5 0 1 1-1 0 .5.5 0 0 1 1 0z"
     id="path2"
     style="fill:#ffffff;fill-opacity:1" />
  <path
     d="M16 11a2 2 0 0 1-2 2H2a2 2 0 0 1-2-2V9.51c0-.418.105-.83.305-1.197l2.472-4.531A1.5 1.5 0 0 1 4.094 3h7.812a1.5 1.5 0 0 1 1.317.782l2.472 4.53c.2.368.305.78.305 1.198V11zM3.655 4.26 1.592 8.043C1.724 8.014 1.86 8 2 8h12c.14 0 .276.014.408.042L12.345 4.26a.5.5 0 0 0-.439-.26H4.094a.5.5 0 0 0-.44.26zM1 10v1a1 1 0 0 0 1 1h12a1 1 0 0 0 1-1v-1a1 1 0 0 0-1-1H2a1 1 0 0 0-1 1z"
     id="path4"
     style="fill:#ffffff;fill-opacity:1" />
</svg>
