<?xml version="1.0" encoding="UTF-8" standalone="no"?>
<svg
   width="16"
   height="16"
   fill="currentColor"
   class="bi bi-webcam"
   viewBox="0 0 16 16"
   version="1.1"
   id="svg6"
   sodipodi:docname="webcam.svg"
   inkscape:version="1.1.2 (b8e25be833, 2022-02-05)"
   inkscape:export-filename="D:\Daten\WEBSITE\96_BUTTONS_AUTOSTART_MAVEN\BUTTONS_AUTOSTART_MAVEN\lib\bootstrap-icons-1.10.3\webcam.png"
   inkscape:export-xdpi="400"
   inkscape:export-ydpi="400"
   xmlns:inkscape="http://www.inkscape.org/namespaces/inkscape"
   xmlns:sodipodi="http://sodipodi.sourceforge.net/DTD/sodipodi-0.dtd"
   xmlns="http://www.w3.org/2000/svg"
   xmlns:svg="http://www.w3.org/2000/svg">
  <defs
     id="defs10" />
  <sodipodi:namedview
     id="namedview8"
     pagecolor="#ffffff"
     bordercolor="#666666"
     borderopacity="1.0"
     inkscape:pageshadow="2"
     inkscape:pageopacity="0.0"
     inkscape:pagecheckerboard="0"
     showgrid="false"
     inkscape:zoom="44.9375"
     inkscape:cx="7.9888734"
     inkscape:cy="7.9888734"
     inkscape:window-width="3440"
     inkscape:window-height="1377"
     inkscape:window-x="1912"
     inkscape:window-y="-369"
     inkscape:window-maximized="1"
     inkscape:current-layer="svg6" />
  <path
     d="M0 6a2 2 0 0 1 2-2h12a2 2 0 0 1 2 2v3a2 2 0 0 1-2 2H9.269c.144.162.33.324.531.475a6.785 6.785 0 0 0 .907.57l.014.006.003.002A.5.5 0 0 1 10.5 13h-5a.5.5 0 0 1-.224-.947l.003-.002.014-.007a4.473 4.473 0 0 0 .268-.148 6.75 6.75 0 0 0 .639-.421c.2-.15.387-.313.531-.475H2a2 2 0 0 1-2-2V6Zm2-1a1 1 0 0 0-1 1v3a1 1 0 0 0 1 1h12a1 1 0 0 0 1-1V6a1 1 0 0 0-1-1H2Z"
     id="path2"
     style="fill:#4c87c8;fill-opacity:1" />
  <path
     d="M8 6.5a1 1 0 1 0 0 2 1 1 0 0 0 0-2Zm-2 1a2 2 0 1 1 4 0 2 2 0 0 1-4 0Zm7 0a.5.5 0 1 1-1 0 .5.5 0 0 1 1 0Z"
     id="path4"
     style="fill:#4c87c8;fill-opacity:1" />
</svg>
