<?xml version="1.0" encoding="UTF-8" standalone="no"?>
<svg
   width="16"
   height="16"
   fill="currentColor"
   class="bi bi-window"
   viewBox="0 0 16 16"
   version="1.1"
   id="svg6"
   sodipodi:docname="window_internet.svg"
   inkscape:version="1.1.2 (b8e25be833, 2022-02-05)"
   inkscape:export-filename="D:\Daten\WEBSITE\96_BUTTONS_AUTOSTART_MAVEN\BUTTONS_AUTOSTART_MAVEN\lib\bootstrap-icons-1.10.3\window_internet.png"
   inkscape:export-xdpi="400"
   inkscape:export-ydpi="400"
   xmlns:inkscape="http://www.inkscape.org/namespaces/inkscape"
   xmlns:sodipodi="http://sodipodi.sourceforge.net/DTD/sodipodi-0.dtd"
   xmlns="http://www.w3.org/2000/svg"
   xmlns:svg="http://www.w3.org/2000/svg">
  <defs
     id="defs10" />
  <sodipodi:namedview
     id="namedview8"
     pagecolor="#ffffff"
     bordercolor="#666666"
     borderopacity="1.0"
     inkscape:pageshadow="2"
     inkscape:pageopacity="0.0"
     inkscape:pagecheckerboard="0"
     showgrid="false"
     inkscape:zoom="44.9375"
     inkscape:cx="23.922114"
     inkscape:cy="9.8581363"
     inkscape:window-width="3440"
     inkscape:window-height="1377"
     inkscape:window-x="1912"
     inkscape:window-y="-369"
     inkscape:window-maximized="1"
     inkscape:current-layer="svg6" />
  <path
     d="M2.5 4a.5.5 0 1 0 0-1 .5.5 0 0 0 0 1zm2-.5a.5.5 0 1 1-1 0 .5.5 0 0 1 1 0zm1 .5a.5.5 0 1 0 0-1 .5.5 0 0 0 0 1z"
     id="path2"
     style="fill:#4c87c8;fill-opacity:1" />
  <path
     d="M2 1a2 2 0 0 0-2 2v10a2 2 0 0 0 2 2h12a2 2 0 0 0 2-2V3a2 2 0 0 0-2-2H2zm13 2v2H1V3a1 1 0 0 1 1-1h12a1 1 0 0 1 1 1zM2 14a1 1 0 0 1-1-1V6h14v7a1 1 0 0 1-1 1H2z"
     id="path4"
     style="fill:#4c87c8;fill-opacity:1" />
  <path
     d="m 7.0681503,10.064113 a 3.8887346,3.8887346 0 1 1 7.7774687,0 3.8887346,3.8887346 0 0 1 -7.7774687,0 z M 10.713839,6.6988993 c -0.32568,0.099163 -0.648932,0.3985946 -0.917255,0.9017005 A 3.8741516,3.8741516 0 0 0 9.5690927,8.119746 H 10.713839 Z M 9.0562658,8.119746 A 4.5046127,4.5046127 0 0 1 9.3673644,7.3716498 3.2568151,3.2568151 0 0 1 9.6575617,6.9181266 3.4147949,3.4147949 0 0 0 8.1642872,8.119746 Z M 8.7733602,9.8210674 C 8.7879429,9.3947638 8.8404412,8.9859595 8.9250209,8.6058373 H 7.8818681 A 3.3822268,3.3822268 0 0 0 7.5629917,9.8210674 Z M 9.4242372,8.6058373 A 6.0761476,6.0761476 0 0 0 9.2599382,9.8210674 H 10.713839 V 8.6058373 Z m 1.7756948,0 v 1.2152301 h 1.453413 A 6.0737171,6.0737171 0 0 0 12.489533,8.6058373 Z M 9.2604243,10.307159 a 6.0761476,6.0761476 0 0 0 0.1638129,1.215229 h 1.2896018 v -1.215229 z m 1.9395077,0 v 1.215229 h 1.289601 c 0.0909,-0.371862 0.148743,-0.781635 0.164299,-1.215229 z M 9.5690927,12.00848 c 0.067081,0.187631 0.1433971,0.361652 0.2274913,0.519145 0.268323,0.503105 0.59206,0.802051 0.917255,0.9017 V 12.00848 Z m 0.088468,1.201619 A 3.2548707,3.2548707 0 0 1 9.3673644,12.756574 4.5050987,4.5050987 0 0 1 9.0562658,12.00848 H 8.1642872 a 3.4143087,3.4143087 0 0 0 1.4932735,1.201619 z M 8.9250209,11.522388 A 6.6361252,6.6361252 0 0 1 8.7733602,10.307159 H 7.5629917 c 0.030138,0.43262 0.1414526,0.842397 0.3188764,1.215229 z m 3.3311881,1.687711 a 3.4143087,3.4143087 0 0 0 1.493275,-1.201619 h -0.891981 a 4.5060709,4.5060709 0 0 1 -0.311098,0.748094 3.2509819,3.2509819 0 0 1 -0.290196,0.453525 z M 11.199932,12.00848 v 1.420845 c 0.32568,-0.09916 0.648933,-0.398595 0.917255,-0.9017 0.08409,-0.157493 0.16041,-0.331514 0.227491,-0.519145 z m 1.788817,-0.486092 h 1.043152 c 0.177424,-0.372832 0.288739,-0.782609 0.318878,-1.215229 h -1.210368 a 6.6351531,6.6351531 0 0 1 -0.151662,1.215229 z m 1.36203,-1.7013206 A 3.3827129,3.3827129 0 0 0 14.031901,8.6058373 h -1.043152 c 0.08459,0.3801222 0.137082,0.7889265 0.151662,1.2152301 z M 12.546405,7.3716498 c 0.120067,0.2255468 0.224575,0.4763709 0.311098,0.7480962 h 0.891981 A 3.4143087,3.4143087 0 0 0 12.256209,6.9181266 c 0.105971,0.1380496 0.203186,0.2906826 0.290196,0.4535232 z M 12.344678,8.119746 A 3.8722074,3.8722074 0 0 0 12.117187,7.6005998 C 11.848865,7.0974939 11.525612,6.7985479 11.199932,6.6988993 V 8.119746 Z"
     id="path2-1"
     style="stroke-width:0.486091;fill:#4c87c8;fill-opacity:1" />
  <text
     xml:space="preserve"
     style="font-size:2.66667px;line-height:0.65;font-family:sans-serif;-inkscape-font-specification:'sans-serif, Normal';font-variant-ligatures:none;fill:#4c87c8;fill-opacity:1"
     x="4.5210462"
     y="7.4993048"
     id="text17743"><tspan
       sodipodi:role="line"
       x="4.5210462"
       y="7.4993048"
       id="tspan18899"
       style="font-size:2.66667px;text-align:center;text-anchor:middle;fill:#4c87c8;fill-opacity:1">www.</tspan></text>
</svg>
